<svg width="71" height="33" viewBox="0 0 71 33" fill="none" xmlns="http://www.w3.org/2000/svg">
<path fill-rule="evenodd" clip-rule="evenodd" d="M46.8386 3.04051C47.3153 3.50083 47.6137 3.98659 47.7257 4.4811C51.6442 4.74714 55.3376 6.10237 58.14 8.32781C61.2805 10.8218 63.0448 14.2043 63.0448 17.7313H60.2931C60.2931 14.7838 58.8187 11.9571 56.1942 9.87299C53.5697 7.78884 50.0102 6.61798 46.2986 6.61798C42.74 6.61798 39.671 7.42196 37.1109 9.32516C37.3358 9.54406 37.5514 9.76815 37.7574 9.99702C40.1782 8.63293 43.1842 7.88039 46.2987 7.88039C49.9563 7.88039 53.4641 8.91824 56.0504 10.7656C58.6368 12.613 60.0897 15.1186 60.0897 17.7311H57.8236C57.8236 15.5479 56.6094 13.454 54.448 11.9102C52.2867 10.3664 49.3553 9.49907 46.2987 9.49907C43.5748 9.49907 40.9504 10.1878 38.8818 11.4303C39.0468 11.6739 39.2022 11.9215 39.3476 12.1725C41.3468 10.9961 43.8971 10.3432 46.5452 10.3432C49.4843 10.3432 52.3031 11.1475 54.3814 12.5793C56.4597 14.011 57.6273 15.9528 57.6273 17.9775H55.8062C55.8062 16.2855 54.8305 14.6628 53.0937 13.4663C51.3569 12.2699 49.0014 11.5977 46.5452 11.5977C44.089 11.5977 41.7334 12.2699 39.9966 13.4663L39.9963 13.4665C40.0635 13.6241 40.127 13.7827 40.1867 13.9423C41.8328 12.8978 44.0205 12.3133 46.2986 12.3133C48.6499 12.3133 50.905 12.936 52.5676 14.0444C54.143 15.0947 55.0643 16.4996 55.1566 17.9776H70.4329C70.4329 19.9675 69.5061 21.9375 67.7064 23.7733C65.9067 25.6091 63.2699 27.2741 59.9492 28.6716C56.6285 30.0691 52.69 31.1713 48.3624 31.9141C44.0349 32.6569 39.4045 33.0255 34.7401 32.9986C30.0758 32.9717 25.4704 32.5498 21.1916 31.7573C16.9127 30.9649 13.0455 29.8177 9.81459 28.3824C6.5837 26.9471 4.05347 25.2523 2.37084 23.3963C0.688213 21.5404 -0.113287 19.5604 0.0128852 17.5713L7.3885 17.6564C7.41327 14.1565 9.17479 10.8041 12.2931 8.3278C15.214 6.00825 19.1029 4.63406 23.2057 4.45321C23.3225 3.96833 23.6186 3.49217 24.0863 3.04051C24.7051 2.44294 25.6121 1.89997 26.7555 1.44261C27.899 0.985245 29.2564 0.622445 30.7503 0.374922C32.2442 0.127399 33.8454 0 35.4625 0C37.0795 0 38.6807 0.127398 40.1746 0.374922C41.6685 0.622445 43.026 0.985245 44.1694 1.44261C45.3128 1.89997 46.2198 2.44294 46.8386 3.04051ZM10.1401 17.6882L10.3435 17.6905C10.3585 15.0926 11.8098 12.6034 14.3827 10.7656C16.969 8.91826 20.4768 7.88042 24.1344 7.88042C27.792 7.88042 31.2998 8.91826 33.8862 10.7656C36.4725 12.613 37.9255 15.1186 37.9255 17.7312H35.6593C35.6593 15.5479 34.4451 13.454 32.2837 11.9102C30.1224 10.3664 27.191 9.4991 24.1344 9.4991C21.0778 9.4991 18.1464 10.3664 15.9851 11.9102C13.8285 13.4506 12.6149 15.5386 12.6095 17.7167L13.3048 17.7247C13.3977 15.7917 14.553 13.9513 16.5446 12.5793C18.6229 11.1476 21.4417 10.3432 24.3809 10.3432C27.32 10.3432 30.1388 11.1476 32.2171 12.5793C34.2954 14.011 35.4629 15.9528 35.4629 17.9776H35.2123L35.2164 17.9776H52.0894C52.0054 17.1357 51.4921 16.3353 50.6288 15.7115C49.6817 15.0273 48.3829 14.6059 46.9909 14.5312C45.5988 14.4565 44.2156 14.734 43.1166 15.3084C42.0176 15.8829 41.2833 16.7121 41.06 17.6312L40.8801 17.6118C40.8806 17.6516 40.8808 17.6914 40.8808 17.7313H38.129C38.129 14.7838 36.6546 11.9571 34.0301 9.87299C31.4056 7.78884 27.8461 6.61798 24.1345 6.61798C20.4229 6.61798 16.8634 7.78884 14.2389 9.87299C11.6272 11.947 10.1544 14.7563 10.1401 17.6882ZM53.1841 17.9776H53.6983C53.607 16.7573 52.8396 15.5993 51.5375 14.7312C50.148 13.8049 48.2636 13.2845 46.2986 13.2845C44.3337 13.2845 42.4492 13.8049 41.0598 14.7312C40.8248 14.8879 40.6489 14.9611 40.5188 14.981C40.6131 15.3351 40.6893 15.6929 40.7471 16.0536C41.1726 15.5483 41.7464 15.099 42.4425 14.7352C43.7576 14.0478 45.4128 13.7158 47.0785 13.8051C48.7443 13.8945 50.2985 14.3988 51.4318 15.2176C52.4814 15.9759 53.0986 16.9525 53.1841 17.9776ZM33.6419 17.9594C33.6349 16.2739 32.66 14.6585 30.9294 13.4663C29.1926 12.2699 26.837 11.5977 24.3809 11.5977C21.9247 11.5977 19.5691 12.2699 17.8323 13.4663C16.175 14.608 15.2107 16.1379 15.1259 17.7457L15.2979 17.7477C15.4667 16.3544 16.3723 15.0401 17.8658 14.0445C19.5284 12.936 21.7835 12.3133 24.1348 12.3133C26.4861 12.3133 28.7411 12.936 30.4037 14.0445C31.97 15.0887 32.8897 16.4833 32.9911 17.9519L33.6419 17.9594ZM31.531 17.9351C31.4252 16.7304 30.6606 15.5892 29.3736 14.7312C27.9842 13.8049 26.0997 13.2845 24.1348 13.2845C22.1698 13.2845 20.2853 13.8049 18.8959 14.7312C17.6698 15.5486 16.9178 16.6231 16.758 17.7646L17.7656 17.7762C17.9194 16.7649 18.5914 15.8144 19.6791 15.0892C20.9261 14.2579 22.6174 13.7909 24.3809 13.7909C26.1443 13.7909 27.8356 14.2579 29.0826 15.0892C30.225 15.8508 30.9088 16.861 31.0154 17.9291L31.531 17.9351ZM29.9184 17.9165C29.8098 17.0465 29.2429 16.2262 28.31 15.6043C27.2679 14.9096 25.8546 14.5193 24.3809 14.5193C22.9071 14.5193 21.4938 14.9096 20.4517 15.6043C19.5646 16.1957 19.0084 16.9665 18.8626 17.7889L29.9184 17.9165ZM42.133 4.64069C42.2211 4.72253 42.2985 4.80584 42.3649 4.89032C42.1318 4.94626 41.9012 5.00704 41.673 5.0725C41.3668 4.79228 40.9655 4.53593 40.4832 4.31336C39.8887 4.03894 39.1828 3.82126 38.406 3.67275C37.6291 3.52423 36.7965 3.44779 35.9557 3.44779C35.1148 3.44779 34.2822 3.52423 33.5053 3.67275C32.7285 3.82126 32.0226 4.03894 31.4281 4.31336C30.8335 4.58778 30.3618 4.91356 30.0401 5.2721L30.0295 5.28395C29.6817 5.18008 29.3295 5.08537 28.9734 5.00001C29.0548 4.87783 29.1588 4.75775 29.2849 4.64069C29.6343 4.31623 30.1465 4.02141 30.7922 3.77307C31.4379 3.52473 32.2044 3.32774 33.048 3.19334C33.8916 3.05894 34.7958 2.98977 35.7089 2.98977C36.6221 2.98977 37.5263 3.05894 38.3699 3.19334C39.2135 3.32774 39.98 3.52473 40.6257 3.77307C41.2714 4.02141 41.7836 4.31623 42.133 4.64069ZM39.2335 4.89017C39.6525 5.08355 39.9871 5.31215 40.2195 5.56357C39.721 5.75793 39.2343 5.9749 38.7586 6.21256C38.6297 6.06184 38.4834 5.92062 38.3213 5.79089C37.9782 5.51647 37.571 5.29879 37.1228 5.15028C36.6747 5.00177 36.1943 4.92533 35.7092 4.92533C35.2241 4.92533 34.7437 5.00177 34.2956 5.15028C33.8474 5.29879 33.4401 5.51647 33.0971 5.79089C32.9164 5.93546 32.7554 6.09428 32.6163 6.26464C32.2556 6.09639 31.8874 5.93908 31.5125 5.79299C31.5581 5.72232 31.6116 5.65265 31.6729 5.58427C31.9059 5.3247 32.2474 5.08884 32.6778 4.89017C33.1083 4.6915 33.6193 4.53391 34.1817 4.42639C34.7441 4.31887 35.3469 4.26353 35.9557 4.26353C36.5644 4.26353 37.1672 4.31887 37.7296 4.42639C38.292 4.53391 38.803 4.6915 39.2335 4.89017ZM37.6003 6.3677C37.7147 6.45922 37.8182 6.55863 37.9097 6.66461C37.1455 7.09692 36.4097 7.58242 35.6983 8.11241C35.007 7.58827 34.2649 7.1154 33.4814 6.69689C33.5795 6.57877 33.6922 6.46845 33.8181 6.3677C34.0665 6.16903 34.3613 6.01144 34.6858 5.90392C35.0102 5.7964 35.358 5.74106 35.7092 5.74106C36.0604 5.74106 36.4082 5.7964 36.7326 5.90392C37.0571 6.01144 37.3519 6.16903 37.6003 6.3677ZM26.6213 4.46863C26.7219 4.15732 26.9249 3.85202 27.2265 3.56079C27.6745 3.12817 28.3311 2.73508 29.1589 2.40396C29.9867 2.07284 30.9694 1.81019 32.051 1.63099C33.1326 1.45179 34.2918 1.35956 35.4625 1.35956C36.6331 1.35956 37.7923 1.45179 38.8739 1.63099C39.9555 1.81019 40.9382 2.07284 41.766 2.40396C42.5938 2.73508 43.2504 3.12817 43.6984 3.56079C43.7418 3.60267 43.7831 3.64483 43.8224 3.68726C43.4447 3.45799 43.0017 3.24488 42.5003 3.05205C41.6085 2.70903 40.5497 2.43693 39.3844 2.25129C38.2192 2.06565 36.9702 1.9701 35.7089 1.9701C34.4477 1.9701 33.1987 2.06565 32.0335 2.25129C30.8682 2.43693 29.8094 2.70903 28.9176 3.05206C28.0257 3.39508 27.3182 3.8023 26.8356 4.25048C26.7581 4.32241 26.6867 4.39516 26.6213 4.46863Z" fill="#D29F7A"/>
</svg>
